<svg xmlns="http://www.w3.org/2000/svg" xml:space="preserve" viewBox="0 0 22 22"><g fill-rule="evenodd" clip-rule="evenodd"><path d="M15.582 5.51c.67 0 1.313-.004 1.955 0 1.101.007 2.001.731 2.234 1.802.042.185.054.377.057.567.006.755.005 1.51 0 2.265-.001.128.021.19.166.227a1.45 1.45 0 0 1 1.104 1.43c.005.906.005 1.813 0 2.718a1.456 1.456 0 0 1-1.109 1.428c-.131.032-.162.089-.161.211.005.77.006 1.539.001 2.307-.009 1.13-.694 2.018-1.76 2.268-.189.045-.39.061-.586.061-4.722.003-9.442.005-14.164.003-1.205 0-2.065-.852-2.067-2.056-.007-3.935-.009-7.868-.01-11.801 0-.787.479-1.466 1.217-1.743 3.693-1.388 7.388-2.776 11.082-4.161.97-.364 2.031.363 2.039 1.398.008.945.002 1.891.002 2.836v.24zm3.292 4.803c.005-.054.01-.086.01-.118 0-.801.003-1.602-.002-2.403a1.432 1.432 0 0 0-.056-.368c-.167-.606-.681-.967-1.365-.967H2.607c-.32 0-.377.05-.415.372-.007.064-.005.13-.005.196l.009 11.662c.001.742.421 1.163 1.157 1.163h14.104c.876 0 1.425-.549 1.426-1.428.003-.735.001-1.47 0-2.206 0-.063-.006-.127-.011-.21h-.247c-.597-.005-1.196.014-1.792-.02-1.597-.084-2.842-1.669-2.571-3.245.249-1.456 1.4-2.426 2.877-2.428h1.735zm-4.241-4.809c0-1.05.005-2.08-.005-3.108-.001-.21-.137-.362-.327-.458-.197-.099-.382-.038-.57.032-3.041 1.144-6.083 2.285-9.125 3.428-.063.023-.123.053-.184.08l.012.026h10.199zm5.521 7.657c0-.433.001-.866-.001-1.3-.001-.389-.208-.602-.592-.603-.827-.001-1.654-.006-2.481.004-.205.004-.419.04-.616.104-.861.281-1.388 1.147-1.269 2.052.119.893.872 1.602 1.779 1.626.872.024 1.745.012 2.618.007.354 0 .558-.215.561-.571.004-.439.001-.878.001-1.319z"/><path d="M17.014 12.268c.508-.002.881.369.887.881a.872.872 0 0 1-.89.903c-.502-.005-.873-.386-.873-.896 0-.512.369-.886.876-.888z"/></g></svg>