<svg xmlns="http://www.w3.org/2000/svg" xml:space="preserve" viewBox="0 0 22 22"><g fill-rule="evenodd" clip-rule="evenodd"><path d="M5.688 16.278c-.089-.271-.157-.484-.23-.697-.021-.063-.042-.133-.085-.176-.407-.406-.818-.807-1.238-1.219l-.152.143c-.453.412-1.091.41-1.535-.02-.485-.469-.96-.947-1.437-1.424-.51-.512-.515-1.144-.006-1.666.641-.659 1.288-1.313 1.932-1.969.052-.053.101-.108.166-.177l-.224-.103a3.135 3.135 0 0 1-1.738-3.527c.309-1.397 1.57-2.418 3.016-2.439 1.792-.026 3.245 1.489 3.158 3.283a.473.473 0 0 0 .118.316c.398.425.811.835 1.219 1.251.573.585.586 1.138.041 1.753-.021.023-.04.047-.078.092.3.304.6.607.898.911.207.209.389.442.734.451.131.004.259.12.423.201.084-.091.184-.205.29-.314.235-.242.52-.377.861-.366a.895.895 0 0 0 .732-.313c.252-.276.515-.544.78-.823-.056-.06-.101-.111-.146-.161-.439-.467-.442-1.104.007-1.567.431-.446.88-.875 1.309-1.323a.552.552 0 0 0 .146-.333c.044-1.798 1.511-3.146 3.349-3.066 1.68.073 3.035 1.617 2.898 3.339-.088 1.107-.634 1.947-1.597 2.508-.073.042-.147.082-.219.124-.007.003-.009.012-.069.074.167.144.343.278.499.432.49.485.974.977 1.458 1.468.509.517.511 1.153.004 1.669-.446.453-.896.902-1.343 1.354-.585.59-1.162.604-1.766.039-.017-.016-.036-.029-.07-.053-.358.385-.719.768-1.074 1.158a.2.2 0 0 0-.041.162c.09.318.02.623-.058.93-.05.199-.116.396-.146.602a2.114 2.114 0 0 0-.018.578c.061.412-.061.752-.387.994a435.898 435.898 0 0 1-4.041 2.961c-.438.316-.886.26-1.347-.111-.21.074-.405.178-.609.205-.564.074-1.13-.346-1.254-.916-.032-.143-.091-.193-.229-.229-.459-.123-.752-.43-.873-.885-.034-.129-.075-.186-.209-.221-.476-.127-.773-.439-.905-.916-.018-.066-.076-.156-.134-.174-.918-.276-1.227-1.032-.78-1.81zm9.431 1.832c.128-.094.245-.178.36-.264.281-.207.295-.365.047-.613-1.043-1.047-2.09-2.092-3.137-3.137-.26-.26-.409-.266-.688-.031-.573.48-1.388.443-1.89-.086a1.363 1.363 0 0 1 .006-1.891c.092-.098.217-.164.326-.244l-.063-.078c-.042-.014-.088-.043-.125-.035-.292.066-.465-.104-.652-.289-.405-.404-.831-.79-1.202-1.14l-3.459 3.356c.44.43.854.836 1.274 1.236.189.182.359.359.283.654-.009.035.025.082.063.191.102-.125.172-.225.255-.311.593-.619 1.373-.574 1.846.141.145.219.279.299.538.33.628.076.986.594.982 1.34.044.021.094.041.139.07.416.258.735.584.725 1.115-.003.152.038.219.18.283.757.344.925 1.25.355 1.854-.041.043-.079.088-.119.131.18.156.251.172.41.061.263-.184.519-.379.823-.604-.207-.189-.402-.361-.587-.543-.193-.189-.208-.41-.056-.566.159-.162.383-.143.583.057.21.211.415.424.627.643.167-.135.313-.252.497-.398-.182-.168-.346-.307-.497-.457-.191-.191-.206-.41-.049-.568.156-.156.376-.143.565.047.184.182.361.371.549.568l.505-.373c-.152-.137-.288-.248-.409-.373-.181-.184-.189-.393-.036-.549.155-.156.357-.146.55.027.16.146.314.292.481.446zm.649-1.728c.053-.213.126-.445.162-.684a.656.656 0 0 0-.052-.377c-.13-.25-.068-.43.123-.611.439-.414.868-.84 1.323-1.279l-3.494-3.393c-.229.224-.504.479-.765.749a1.644 1.644 0 0 1-1.207.524c-.107.002-.246.026-.316.096-.424.409-.841.826-1.242 1.259-.172.186-.163.496-.03.711.14.227.392.352.649.279.14-.039.27-.135.388-.227.415-.328.976-.359 1.38-.033.188.156.378.207.592.133.213-.072.427-.162.622-.275.224-.131.42-.135.555.027.142.17.115.404-.102.559-.233.162-.494.289-.719.418.689.684 1.409 1.401 2.133 2.124zM7.042 7.388c.006-.009-.012.013-.025.039-.612 1.197-1.595 1.79-2.934 1.819a.443.443 0 0 0-.27.131c-.764.762-1.521 1.531-2.28 2.299-.252.256-.253.428-.001.685.44.447.882.893 1.325 1.34.284.285.445.285.732-.006.982-.986 1.963-1.977 2.944-2.964.55-.554 1.103-1.106 1.651-1.662.181-.185.222-.378.071-.529-.392-.394-.806-.768-1.213-1.152zm7.795-.177c-.38.36-.765.71-1.131 1.079-.164.164-.129.358.059.546a6796.87 6796.87 0 0 0 4.633 4.663c.241.242.424.24.668-.004.448-.451.896-.9 1.342-1.355.249-.252.25-.416.005-.666-.694-.704-1.387-1.409-2.088-2.104a.442.442 0 0 0-.296-.112c-.45.021-.887-.021-1.311-.179-.916-.342-1.534-.982-1.881-1.868zM1.78 6.115a2.399 2.399 0 0 0 2.397 2.398A2.395 2.395 0 0 0 6.56 6.127a2.394 2.394 0 0 0-2.396-2.396A2.393 2.393 0 0 0 1.78 6.115zm15.981 2.397a2.394 2.394 0 0 0 2.408-2.384 2.391 2.391 0 0 0-2.372-2.396 2.397 2.397 0 0 0-2.408 2.384 2.395 2.395 0 0 0 2.372 2.396zm-8.975 8.03c-.135.063-.234.08-.294.141-.37.365-.738.732-1.092 1.113-.158.17-.119.371.068.547.171.16.362.174.528.01.359-.355.72-.711 1.055-1.086.078-.088.113-.289.067-.393-.058-.135-.218-.225-.332-.332zm-.915-.412c-.124-.133-.218-.295-.357-.359-.098-.045-.294.006-.385.086-.282.244-.538.52-.795.791-.186.197-.173.393.021.582.183.18.372.184.561 0 .257-.252.512-.504.758-.766.073-.078.113-.19.197-.334zm2.211 2.207c-.125-.133-.222-.279-.357-.367-.143-.094-.291-.021-.409.1-.256.262-.519.518-.771.785-.185.193-.172.391.02.584.178.178.37.182.561-.004.258-.252.514-.504.76-.766.073-.078.112-.188.196-.332zm.862 1.344c-.111-.121-.202-.262-.328-.352-.139-.096-.297-.047-.418.072-.192.186-.383.373-.566.568-.176.189-.167.385.014.566.178.18.384.191.566.02.195-.184.384-.373.566-.572.062-.066.093-.164.166-.302z"/><path d="M10.972.461a3.12 3.12 0 0 1 3.129 3.148c-.007 1.706-1.417 3.103-3.135 3.104-1.715 0-3.128-1.425-3.118-3.145A3.123 3.123 0 0 1 10.972.461zm-2.388 3.11a2.4 2.4 0 0 0 2.366 2.406c1.311.011 2.401-1.054 2.414-2.357.014-1.322-1.036-2.407-2.342-2.421a2.389 2.389 0 0 0-2.438 2.372z"/><path d="M3.97 7.592c-.125 0-.231.004-.338 0-.231-.012-.385-.168-.38-.376.005-.2.154-.346.375-.357.152-.007.306-.004.459-.001.136.002.273-.029.252-.185-.01-.071-.145-.165-.234-.178-.371-.06-.646-.237-.787-.588-.134-.333-.074-.646.149-.927a.787.787 0 0 1 .13-.128c.177-.137.397-.191.508-.445.098-.223.451-.145.583.086a.527.527 0 0 0 .188.19c.157.094.238.222.205.4a.343.343 0 0 1-.332.298c-.175.013-.354-.013-.526.013-.084.013-.156.107-.233.165.069.065.133.179.209.188.394.045.686.224.828.596.146.382.048.719-.236 1.009a.278.278 0 0 0-.066.159c-.032.29-.128.431-.334.445-.243.017-.36-.132-.42-.364z"/><path d="M17.559 7.59c-.112 0-.236.009-.357-.002a.361.361 0 0 1-.339-.367.358.358 0 0 1 .346-.359c.168-.012.341.016.504-.012.091-.016.166-.112.249-.172-.074-.063-.138-.168-.22-.182-.499-.085-.816-.366-.875-.804-.059-.428.171-.793.613-.995a.26.26 0 0 0 .124-.135c.064-.167.173-.273.355-.276.17-.002.281.091.353.245a.334.334 0 0 0 .146.142c.174.084.266.216.232.404-.034.197-.17.302-.372.308-.168.004-.341-.019-.504.01-.08.015-.145.118-.214.182.067.06.13.163.203.17.403.042.698.229.839.612.137.374.037.705-.238.99a.314.314 0 0 0-.069.18c-.026.265-.128.412-.329.427-.228.018-.354-.11-.411-.319-.005-.013-.019-.023-.036-.047z"/><path d="M10.113 3.156c-.197-.556-.103-.967.277-1.25a.975.975 0 0 1 1.157-.003c.376.273.481.697.301 1.248.08.071.168.141.249.221.286.289.439.638.466 1.044.017.248-.108.424-.322.452-.208.027-.369-.12-.405-.371-.088-.626-.555-.976-1.1-.814a.817.817 0 0 0-.594.638c-.015.067-.02.136-.031.204-.033.219-.194.363-.383.344-.196-.018-.326-.176-.324-.402a1.51 1.51 0 0 1 .478-1.106c.07-.069.148-.131.231-.205zm.94-.758-.11-.009c-.068.083-.172.157-.197.251-.039.146.058.274.209.256.092-.011.228-.12.242-.201.014-.089-.091-.197-.144-.297z"/></g></svg>