<svg xmlns="http://www.w3.org/2000/svg" xml:space="preserve" width="22" height="22"><g fill-rule="evenodd" clip-rule="evenodd"><path d="M.508 11.462c.065-.298.111-.602.2-.893.353-1.161 1.067-2.042 2.112-2.655.046-.027.092-.056.156-.096-.956-.817-1.406-1.839-1.274-3.084.092-.87.487-1.6 1.15-2.172a3.39 3.39 0 0 1 4.726.253c1.256 1.339 1.287 3.605-.375 5.001 1.782 1.046 2.574 2.609 2.442 4.668-.063.005-.115.012-.168.012H.651c-.048 0-.095-.007-.143-.01v-1.024zm2.399-6.32a2.185 2.185 0 0 0 2.181 2.17 2.193 2.193 0 0 0 2.175-2.2c-.013-1.194-1.01-2.174-2.194-2.159a2.183 2.183 0 0 0-2.162 2.189zm5.444 6.114c-.159-1.238-1.458-2.847-3.545-2.708-1.432.095-3.002 1.501-2.978 2.708h6.523zM.508 13.756H1.73v3.536h4.474l-.727-.709c.324-.32.607-.602.878-.871l2.202 2.202c-.728.728-1.474 1.475-2.203 2.202a389.23 389.23 0 0 0-.86-.857l.73-.664-.031-.047c-.044-.004-.089-.011-.134-.011H.631c-.041 0-.082.009-.122.012l-.001-4.793zM17.906 14.883c2.503 1.291 3.68 3.337 3.58 6.145H9.415c-.101-2.81 1.079-4.857 3.577-6.142-2.378-1.577-2.622-4.908-.678-6.844a4.431 4.431 0 0 1 6.448.187c1.729 1.932 1.483 5.038-.856 6.654zm-2.454-.502a3.204 3.204 0 0 0 .009-6.406 3.21 3.21 0 0 0-3.219 3.208 3.208 3.208 0 0 0 3.21 3.198zm4.75 5.421c-.233-2.258-2.387-4.493-5.332-4.149-1.361.16-2.458.819-3.282 1.916a4.554 4.554 0 0 0-.896 2.233h9.51z"/></g></svg>